<svg xmlns="http://www.w3.org/2000/svg" version="1.1" xmlns:xlink="http://www.w3.org/1999/xlink" width="512" height="512" x="0" y="0" viewBox="0 0 512 512" style="enable-background:new 0 0 512 512" xml:space="preserve" class=""><g><path d="m461.55 89.46-203.5-74.09a6.045 6.045 0 0 0-4.11 0L50.45 89.46c-2.37.86-3.95 3.12-3.95 5.64s1.58 4.78 3.95 5.64l94.47 34.4v73.85c-34.57 31.35-54.36 75.86-54.36 122.58C90.56 422.78 164.78 497 256 497s165.44-74.22 165.44-165.44c0-46.72-19.78-91.23-54.35-122.58v-73.85l32.18-11.72v29.79l-22.67 42.3c-1 1.86-.94 4.11.14 5.92s3.04 2.92 5.15 2.92h46.76c2.11 0 4.06-1.11 5.15-2.92a6.008 6.008 0 0 0 .14-5.92l-22.67-42.31v-34.15l50.28-18.31c2.37-.86 3.95-3.12 3.95-5.64s-1.58-4.77-3.95-5.63zm-69.64 102.88 13.36-24.93 13.36 24.93zM250 253.13v72.43h-72.44c.6-30.44 5.75-59.21 15.04-83.9 17.73 6.69 36.65 10.44 57.4 11.47zm0 84.43v74.56c-19.43.71-38.52 4.84-56.36 12.09-9.86-25.01-15.45-54.97-16.08-86.66H250zm0 86.57v60.41c-18.04-2.74-35.06-17.78-48.45-43.05-1.08-2.04-2.12-4.13-3.14-6.26 16.35-6.61 33.81-10.4 51.59-11.1zm12 60.41v-60.41c17.78.7 35.24 4.49 51.59 11.1-1.01 2.13-2.06 4.22-3.14 6.26-13.39 25.27-30.41 40.31-48.45 43.05zm0-72.42v-74.56h72.43c-.63 31.68-6.22 61.65-16.08 86.66a165.78 165.78 0 0 0-56.35-12.1zm0-86.56v-72.43c20.75-1.03 39.67-4.78 57.4-11.46 9.28 24.69 14.44 53.46 15.04 83.9H262zm-6-84.21c-38.79-.99-69.49-11.11-99.08-32.72v-15.89c29.36 19.54 61.1 29.16 98.93 30.1h.3c37.83-.94 69.57-10.56 98.93-30.1v15.89c-29.59 21.62-60.29 31.73-99.08 32.72zm-104.68-21.97c9.77 7 19.79 12.87 30.19 17.66-9.88 26.11-15.34 56.48-15.95 88.52h-62.87a153.52 153.52 0 0 1 48.63-106.18zm-48.63 118.18h62.87c.64 33.38 6.6 65.06 17.13 91.58a165.213 165.213 0 0 0-28.04 17.52c-30.52-26.9-50.28-65.72-51.96-109.1zm61.53 116.89c7.33-5.47 15.12-10.24 23.25-14.29 1.12 2.37 2.27 4.69 3.47 6.95 7.07 13.33 15.17 24.17 24.01 32.31a153.052 153.052 0 0 1-50.73-24.97zm156.83-7.34c1.2-2.26 2.35-4.58 3.47-6.95 8.13 4.05 15.92 8.83 23.25 14.29-15.03 11.25-32.18 19.81-50.74 24.97 8.85-8.14 16.96-18.98 24.02-32.31zm36.3-.45a165.213 165.213 0 0 0-28.04-17.52c10.53-26.52 16.49-58.2 17.13-91.58h62.87c-1.68 43.38-21.44 82.2-51.96 109.1zm51.96-121.1h-62.87c-.61-32.04-6.08-62.41-15.95-88.52 10.4-4.78 20.42-10.66 30.19-17.66 29.58 27.63 47.05 65.8 48.63 106.18zm-54.23-147.44c-29.59 21.62-60.29 31.74-99.08 32.73-38.79-.99-69.49-11.11-99.08-32.73V139.5l97.03 35.33a6.023 6.023 0 0 0 4.1 0l97.03-35.33zm56.19-71.85v-2.51c0-2.72-1.82-5.09-4.45-5.8L265.99 60.23c-3.2-.85-6.49 1.04-7.35 4.24s1.04 6.49 4.24 7.35l136.39 36.54v2.27L256 162.8 70.04 95.09 256 27.39 441.96 95.1z" fill="#d8333d" opacity="1" data-original="#000000" class=""></path></g></svg>