<svg xmlns="http://www.w3.org/2000/svg" version="1.1" xmlns:xlink="http://www.w3.org/1999/xlink" width="512" height="512" x="0" y="0" viewBox="0 0 512 512" style="enable-background:new 0 0 512 512" xml:space="preserve" class=""><g><path d="M512 155.966c0-4.35-1.271-8.526-3.674-12.077-2.627-3.881-6.424-6.736-10.981-8.255l-230.781-76.92a33.599 33.599 0 0 0-21.117 0L14.655 135.635c-4.556 1.519-8.354 4.373-10.981 8.255C1.271 147.44 0 151.616 0 155.966s1.27 8.526 3.673 12.077c2.627 3.882 6.424 6.736 10.981 8.255l52.119 17.373v169.486c0 6.83 2.056 13.407 5.946 19.02s9.327 9.848 15.722 12.246l155.839 58.438a33.378 33.378 0 0 0 23.45-.001l155.825-58.437a33.238 33.238 0 0 0 15.721-12.247 33.242 33.242 0 0 0 5.947-19.02V193.672l44.514-14.838v88.441c0 6.148 4.983 11.131 11.131 11.131s11.131-4.983 11.131-11.131V156.04l.001-.074zm-89.039 207.192c0 4.614-2.903 8.802-7.223 10.422l-155.825 58.437c-2.52.945-5.296.945-7.816 0L96.258 373.579c-4.32-1.62-7.223-5.808-7.223-10.422V201.092l156.405 52.135a33.432 33.432 0 0 0 10.559 1.702c3.578 0 7.155-.567 10.56-1.702l156.402-52.134zM259.52 232.107c-2.27.757-4.77.757-7.04 0L24.059 155.966l228.427-76.132c2.27-.756 4.77-.756 7.039 0l228.416 76.133z" fill="#d8333d" opacity="1" data-original="#000000" class=""></path><path d="M244.869 155.975c0 6.148 4.983 11.131 11.131 11.131h133.571c6.148 0 11.131-4.983 11.131-11.131s-4.983-11.131-11.131-11.131H256c-6.148 0-11.131 4.983-11.131 11.131z" fill="#d8333d" opacity="1" data-original="#000000" class=""></path></g></svg>